<svg id="Group_144" data-name="Group 144" xmlns="http://www.w3.org/2000/svg" width="33.142" height="33.14" viewBox="0 0 33.142 33.14">
  <path id="Path_375" data-name="Path 375" d="M181.284,287.943c0-.073.006-.147.006-.22a16.514,16.514,0,0,0-4.777-11.627.784.784,0,0,0-.15-.151,16.535,16.535,0,0,0-23.292.006.785.785,0,0,0-.13.129,16.514,16.514,0,0,0-4.791,11.641c0,.079,0,.157.006.235,0,.017-.006.033-.006.05a.849.849,0,0,0,.009.085,16.51,16.51,0,0,0,4.761,11.249.709.709,0,0,0,.164.164,16.514,16.514,0,0,0,11.635,4.787h0a16.514,16.514,0,0,0,11.641-4.791.687.687,0,0,0,.154-.155,16.51,16.51,0,0,0,4.764-11.228.688.688,0,0,0,.011-.108.473.473,0,0,0-.007-.065Zm-19.006-15.088a18.859,18.859,0,0,0-2.132,2.319,19.2,19.2,0,0,0-1.856,2.9,17.781,17.781,0,0,1-3.527-1.65,15.01,15.01,0,0,1,7.514-3.572Zm-8.629,4.659a19.279,19.279,0,0,0,3.992,1.94,20.854,20.854,0,0,0-1.623,7.8h-6.354a15,15,0,0,1,3.984-9.741Zm-3.957,11.243h6.339a20.72,20.72,0,0,0,1.608,7.231,19.247,19.247,0,0,0-3.992,1.94,15.024,15.024,0,0,1-3.956-9.171Zm5.072,10.26a17.781,17.781,0,0,1,3.527-1.65,19.22,19.22,0,0,0,1.856,2.9,18.764,18.764,0,0,0,2.133,2.32,15.028,15.028,0,0,1-7.516-3.573Zm9.206,3.047a17.081,17.081,0,0,1-2.677-2.77,18.008,18.008,0,0,1-1.538-2.359,20.06,20.06,0,0,1,4.214-.58Zm0-7.224a21.428,21.428,0,0,0-4.895.708,19.041,19.041,0,0,1-1.536-6.79h6.431v6.082Zm0-7.585h-6.45a19.208,19.208,0,0,1,1.555-7.359,21.6,21.6,0,0,0,4.9.708v6.651Zm0-8.167a20.058,20.058,0,0,1-4.214-.58,18,18,0,0,1,1.538-2.359,17.078,17.078,0,0,1,2.677-2.77v5.709Zm10.707-2.663a17.78,17.78,0,0,1-3.527,1.65,19.213,19.213,0,0,0-1.856-2.9,18.852,18.852,0,0,0-2.13-2.319,15.047,15.047,0,0,1,7.513,3.572Zm-9.206-3.049a16.984,16.984,0,0,1,2.635,2.72,17.747,17.747,0,0,1,1.571,2.414,20.072,20.072,0,0,1-4.206.577Zm0,7.227a21.512,21.512,0,0,0,4.885-.7,19.35,19.35,0,0,1,1.564,7.356h-6.449Zm0,8.155H171.9a19.011,19.011,0,0,1-1.536,6.79,21.444,21.444,0,0,0-4.9-.708Zm0,13.307v-5.709a20.058,20.058,0,0,1,4.214.58,18,18,0,0,1-1.538,2.359,17.079,17.079,0,0,1-2.677,2.77Zm1.69.524a18.777,18.777,0,0,0,2.132-2.32,19.2,19.2,0,0,0,1.856-2.9,17.778,17.778,0,0,1,3.527,1.65,14.982,14.982,0,0,1-7.514,3.573Zm8.629-4.659a19.2,19.2,0,0,0-3.992-1.939,20.719,20.719,0,0,0,1.61-7.231h6.339a15,15,0,0,1-3.957,9.17Zm-2.369-10.673a20.856,20.856,0,0,0-1.623-7.8,19.242,19.242,0,0,0,3.992-1.94,15,15,0,0,1,3.984,9.741Z" transform="translate(-148.15 -271.151)" fill="#204798"/>
</svg>
