<svg xmlns="http://www.w3.org/2000/svg" width="32" height="34.286" viewBox="0 0 32 34.286">
  <g id="Group_54" data-name="Group 54" transform="translate(40.86 48.85)">
    <path id="Path_370" data-name="Path 370" d="M-29.431-40.469a.763.763,0,0,1,.762-.762h8.381a.763.763,0,0,1,.762.762.763.763,0,0,1-.762.762H-28.67A.763.763,0,0,1-29.431-40.469ZM-8.86-33.231v10.667a2.292,2.292,0,0,1-2.286,2.286h-4.571v3.429A2.292,2.292,0,0,1-18-14.564H-38.574A2.292,2.292,0,0,1-40.86-16.85V-40.469A.747.747,0,0,1-40.631-41l7.619-7.619a.747.747,0,0,1,.533-.229H-18a2.292,2.292,0,0,1,2.286,2.286v11.048h4.571A2.292,2.292,0,0,1-8.86-33.231Zm-29.409-8H-34a.763.763,0,0,0,.762-.762v-4.266Zm21.028,20.952H-34.765a2.292,2.292,0,0,1-2.286-2.286V-33.231a2.292,2.292,0,0,1,2.286-2.286h17.524V-46.564A.763.763,0,0,0-18-47.326H-31.717v5.333A2.292,2.292,0,0,1-34-39.707h-5.333V-16.85a.763.763,0,0,0,.762.762H-18a.763.763,0,0,0,.762-.762Zm6.857-12.952a.763.763,0,0,0-.762-.762H-34.765a.763.763,0,0,0-.762.762v10.667a.763.763,0,0,0,.762.762h23.619a.763.763,0,0,0,.762-.762ZM-27.908-28.66v1.524a3.057,3.057,0,0,1-3.048,3.048h-1.524a.763.763,0,0,1-.762-.762v-6.1a.763.763,0,0,1,.762-.762h1.524A3.057,3.057,0,0,1-27.908-28.66Zm-1.524,0a1.529,1.529,0,0,0-1.524-1.524h-.762v4.571h.762a1.529,1.529,0,0,0,1.524-1.524Zm9.143-.381v2.286a2.651,2.651,0,0,1-2.667,2.667,2.651,2.651,0,0,1-2.667-2.667V-29.04a2.651,2.651,0,0,1,2.667-2.667A2.651,2.651,0,0,1-20.289-29.04Zm-1.524,0a1.123,1.123,0,0,0-1.143-1.143A1.123,1.123,0,0,0-24.1-29.04v2.286a1.146,1.146,0,0,0,1.143,1.143,1.146,1.146,0,0,0,1.143-1.143Zm6.476-1.143a1.172,1.172,0,0,1,1.067.686.726.726,0,0,0,.991.381.726.726,0,0,0,.381-.991,2.62,2.62,0,0,0-2.439-1.6A2.651,2.651,0,0,0-18-29.04v2.286a2.651,2.651,0,0,0,2.667,2.667,2.675,2.675,0,0,0,2.438-1.6.758.758,0,0,0-.381-.991.726.726,0,0,0-.991.381,1.169,1.169,0,0,1-1.066.686,1.146,1.146,0,0,1-1.143-1.143V-29.04a1.123,1.123,0,0,1,1.143-1.143Z" transform="translate(0)" fill="#204798"/>
  </g>
</svg>
