<svg xmlns="http://www.w3.org/2000/svg" width="32" height="37.12" viewBox="0 0 32 37.12">
  <g id="Group_53" data-name="Group 53" transform="translate(29.719 48.594)">
    <g id="Group_52" data-name="Group 52" transform="translate(-29.719 -48.594)">
      <path id="Path_366" data-name="Path 366" d="M20.08-40.722,12.419-48.4a.6.6,0,0,0-.447-.192H-6.63a2.479,2.479,0,0,0-2.464,2.47v12.249a.639.639,0,0,0,.638.64.639.639,0,0,0,.638-.64V-46.124a1.189,1.189,0,0,1,1.187-1.19H11.334v7.04a.641.641,0,0,0,.187.453.638.638,0,0,0,.452.187H19v25.689a1.189,1.189,0,0,1-1.187,1.19H-6.629a1.189,1.189,0,0,1-1.187-1.19v-3.29a.639.639,0,0,0-.638-.64.639.639,0,0,0-.638.64v3.29a2.479,2.479,0,0,0,2.464,2.47H17.808a2.479,2.479,0,0,0,2.464-2.47V-40.274a.6.6,0,0,0-.192-.448Zm-7.469-5.683,5.477,5.491H12.611Z" transform="translate(11.728 48.594)" fill="#ffffff"/>
      <path id="Path_367" data-name="Path 367" d="M67.137,118.573H65.978v4.7H67.3a2.816,2.816,0,0,0,1.923-.593,2.268,2.268,0,0,0,.659-1.752c-.039-1.581-.975-2.358-2.74-2.358Z" transform="translate(-54.146 -97.909)" fill="#ffffff"/>
      <path id="Path_368" data-name="Path 368" d="M14.467,118.3H13.282v2.753H14.6a1.75,1.75,0,0,0,1.317-.369,1.5,1.5,0,0,0,.435-1.08,1.147,1.147,0,0,0-.448-1.014A2.633,2.633,0,0,0,14.467,118.3Z" transform="translate(-7.961 -97.628)" fill="#ffffff"/>
      <path id="Path_369" data-name="Path 369" d="M-2.06,96.507V87.6A2.127,2.127,0,0,0-2.68,86.09a2.127,2.127,0,0,0-1.513-.621H-27.585a2.128,2.128,0,0,0-1.513.621,2.129,2.129,0,0,0-.621,1.513v8.9A2.129,2.129,0,0,0-29.1,98.02a2.129,2.129,0,0,0,1.513.621H-4.193A2.128,2.128,0,0,0-2.68,98.02,2.128,2.128,0,0,0-2.06,96.507Zm-18.7-3.609a3.59,3.59,0,0,1-2.239.58h-1.225v2.015h-1.159V88.618h2.358a3.443,3.443,0,0,1,2.279.606,2.242,2.242,0,0,1,.724,1.844,2.214,2.214,0,0,1-.738,1.831Zm7.336,1.66a4.135,4.135,0,0,1-2.95.935h-2.279V88.618H-16.3a4.042,4.042,0,0,1,2.832.909,3.186,3.186,0,0,1,1,2.489,3.411,3.411,0,0,1-.961,2.542Zm7.02-4.86H-9.818v1.9h3.043v1.119H-9.818v2.832h-1.159V88.618h4.584Z" transform="translate(29.719 -69.084)" fill="#ffffff"/>
    </g>
  </g>
</svg>
